<!-- by TradingView --><svg width="56" height="56" fill="none" xmlns="http://www.w3.org/2000/svg"><path fill="#1F226B" d="M0 0h56v56H0z"/><path d="M20.523 36c3.675 0 6.213-2.393 6.213-5.583v-.021c0-2.873-2.204-4.954-5.255-4.954-1.626 0-2.95.623-3.619 1.648h-.066l.39-4.288h7.582v-2.8H15.513l-.735 9.21h2.929a2.82 2.82 0 0 1 .768-.844c.545-.412 1.247-.644 2.07-.644 1.738 0 2.974 1.13 2.985 2.735v.021c0 1.627-1.236 2.768-2.995 2.768-1.548 0-2.672-.888-2.906-2.039L17.606 31H14.5l.011.294c.2 2.545 2.517 4.706 6.012 4.706ZM34.953 36c4.075 0 6.547-3.26 6.547-8.107v-.021c0-4.848-2.472-7.87-6.547-7.87-4.075 0-6.547 3.022-6.547 7.87v.02c0 4.848 2.472 8.108 6.547 8.108Zm0-2.784c-2.004 0-3.15-1.975-3.15-5.323v-.021c0-3.349 1.146-5.313 3.15-5.313s3.151 1.964 3.151 5.313v.02c0 3.349-1.147 5.324-3.15 5.324Z" fill="#fff"/></svg>